PathFileType	4	(X/Y/Z)	Patient5_TMGait_0pt45_1_right_08.trc.trc
DataRate	CameraRate	NumFrames	NumMarkers	Units	OrigDataRate	OrigDataStartFrame	OrigNumFrames
57.377049180328	57.377049180328	5	32	mm	57.377049180328	1	       141
Frame#	Time	R.ASIS			L.ASIS			Chest			R.Shoulder			Neck			L.Shoulder			L.Elbow			L.Wrist			R.Elbow			R.Wrist			L.Thigh.Superior			L.Thigh.Lateral			L.Thigh.Inferior			L.Patella			L.Shank.Superior			L.Shank.Lateral			L.Shank.Inferior			L.Heel			L.Midfoot.Lateral			L.Midfoot.Superior			L.Toe			R.Thigh.Superior			R.Thigh.Lateral			R.Thigh.Inferior			R.Patella			R.Shank.Superior			R.Shank.Lateral			R.Shank.Inferior			R.Heel			R.Midfoot.Lateral			R.Midfoot.Superior			R.Toe			
		X1	Y1	Z1	X2	Y2	Z2	X3	Y3	Z3	X4	Y4	Z4	X5	Y5	Z5	X6	Y6	Z6	X7	Y7	Z7	X8	Y8	Z8	X9	Y9	Z9	X10	Y10	Z10	X11	Y11	Z11	X12	Y12	Z12	X13	Y13	Z13	X14	Y14	Z14	X15	Y15	Z15	X16	Y16	Z16	X17	Y17	Z17	X18	Y18	Z18	X19	Y19	Z19	X20	Y20	Z20	X21	Y21	Z21	X22	Y22	Z22	X23	Y23	Z23	X24	Y24	Z24	X25	Y25	Z25	X26	Y26	Z26	X27	Y27	Z27	X28	Y28	Z28	X29	Y29	Z29	X30	Y30	Z30	X31	Y31	Z31	X32	Y32	Z32	

1	12.850000000000	1035.304649844079	1027.853113788361	531.407066992871	1043.526182995285	966.863855946328	277.910503433610	1102.357493311791	1451.009383921762	390.840152491683	972.182144343147	1523.672063858304	530.233425746046	989.969626983775	1576.261278000058	345.441785987544	1088.364855411883	1512.227632835346	187.170974188486	1080.694264169979	1184.696764303420	62.020347412977	1236.775063108604	945.048766793381	96.819312688027	857.379233809937	1208.392768314975	657.853553078045	1080.858083940950	1023.936269638161	635.690052998295	1051.523202919190	745.493529845172	283.496940570107	972.715253883972	678.228250658173	248.160212629801	1041.814909900429	617.232173203710	309.499801871461	1032.101843520002	500.116032999333	319.549990931389	978.892676051754	401.763761326460	347.437400639314	904.098278710367	335.093988591920	274.720399620096	937.554118681006	281.995916702059	363.230275178592	788.659587158720	54.205858511327	376.703485175411	878.339875659795	27.283637917415	319.813364769063	975.678600466866	88.791311200914	363.528107215148	1081.046398148394	44.952629749909	374.363620587865	1091.865220991450	825.436053151523	574.258620096903	1031.809371347460	740.504058912384	640.662475544900	1131.344737624527	703.394830942931	583.073946298108	1160.549133338092	612.929181850933	635.154100291391	1132.209743036422	499.706212496223	606.619607733742	1051.304155565733	432.733107351961	681.420464110279	1122.720206176880	359.794275929511	617.108622660808	1023.051317580290	126.826582289081	590.635507517549	1092.296368453289	99.063965618398	673.743066860017	1194.597116677394	172.524603116426	672.273935436528	1299.698096049656	135.965794375270	685.659963827039	
2	12.867428571429	1033.844683111801	1027.600215365562	530.315572482788	1040.121975083537	966.553000976768	277.168309011440	1098.394496255838	1450.713975571874	390.417478282496	969.052023265559	1522.880118602238	530.960215212622	985.425386067112	1575.578698560892	346.076004615394	1082.658589970377	1511.891617760178	186.940951536194	1074.644039606458	1183.931919602588	62.700858152091	1230.656200506094	944.215174886839	97.817788946124	854.643605818353	1207.920787724941	659.649793180296	1079.051333273899	1024.666851062589	637.319864024509	1047.520909557364	744.385132593175	283.758068172895	967.931184236095	677.693996288557	248.625753435899	1036.563580856162	616.096110921792	310.014486751247	1025.873558353224	499.316155166873	320.169372522377	972.283392960561	401.219987697857	348.201745128274	897.112238349652	334.951277857509	275.463483147337	930.413612972480	281.621212513675	364.050925020665	780.357217074899	54.078219202258	377.220619961996	869.961293350766	27.461130639537	320.125351140175	967.309684907594	88.892176146255	363.763032492468	1072.740366038693	44.867203902213	374.357471078762	1095.161198052387	826.859182320107	572.189244973190	1038.107935299284	741.457551834458	640.398135503114	1136.808184522614	705.716647249171	580.928763193323	1168.328220463235	615.437399954308	632.405492179370	1138.750595970832	501.109591789947	604.356382569756	1059.939013938664	434.516125831707	681.166861677061	1128.950776251874	361.346545348077	614.708632780449	1027.058466601682	129.069224967362	590.798279127046	1098.660907967495	100.751176600555	671.569672308800	1201.015152467704	173.950606556305	667.166664021117	1306.238680555693	137.027363919194	677.182870895197	
3	12.884857142857	1032.419662817183	1027.265255612370	529.171607460103	1036.788337778665	966.200413264128	276.490836202003	1094.486726930663	1450.399046421155	389.999754531002	966.021058005222	1522.046212007529	531.730952011645	980.918409437120	1574.877422060556	346.759220899547	1076.926566894330	1511.543711745250	186.719820300652	1068.519532388794	1183.154202902485	63.369335682806	1224.496470974534	943.388378035852	98.745278019719	852.065238636222	1207.403623270030	661.529723592137	1077.240104197740	1025.160679467492	638.938789665589	1043.579583154045	743.267246902378	284.052769761898	963.202336692706	677.120249689475	249.148426927637	1031.380943382312	614.972401921980	310.570578078574	1019.722106324265	498.494745829442	320.814359404032	965.736429317375	400.656511446083	348.979242472218	890.205466071605	334.786473601351	276.210793120470	923.332278796024	281.240007815702	364.882154472277	772.142064704467	53.939153171145	377.730961397429	861.673739571668	27.634077996734	320.426114917970	959.015978236224	88.962623858138	364.017841144805	1064.523181786106	44.792214231489	374.352914487611	1098.282673008121	828.089081087506	570.245657687727	1044.156774378291	742.235548573179	640.081957938782	1142.015111952651	707.785076908676	578.748843609776	1175.734166788876	617.668163904520	629.599931443269	1144.971382969409	502.317464823288	602.055493239546	1068.170765485602	436.084374110048	680.804577848036	1134.843116332759	362.688451019792	612.289390722730	1030.805727426349	131.078587692571	590.875477650419	1104.645307733177	102.234597563956	669.400153770296	1207.051611066863	175.160606811588	662.170669160296	1312.363631814809	137.862113131140	668.974042194022	
4	12.902285714286	1031.075214207764	1026.774346029934	527.963949285004	1033.601266685499	965.783387010343	275.934795053588	1090.682307226211	1450.050478560403	389.609870847490	963.175350462156	1521.134309799442	532.599126708366	976.478692736901	1574.140764335113	347.550450070479	1071.140173814541	1511.173477103646	186.532889168042	1062.228061946888	1182.359470155576	64.022810170720	1218.212729732141	942.564900568538	99.524174151314	849.802257728229	1206.794929287855	663.573631574167	1075.445346366458	1025.215613126428	640.520288334823	1039.762523964936	742.142314626626	284.397696061688	958.594479843505	676.486075897714	249.757943440754	1026.339990729238	613.873699171941	311.177991038170	1013.713109565348	497.637580928216	321.484866001791	959.306804883325	400.062591830364	349.758157796452	883.433193644532	334.595362278005	276.948067408561	916.356818208845	280.851520177397	365.710179674307	764.065311397603	53.789676387508	378.222747647469	853.531175374378	27.796747362573	320.706747268790	950.843004637638	88.985445493166	364.295120295786	1056.444165510396	44.734847836623	374.350386492861	1101.056312554585	828.917646879293	568.523937515123	1049.677547069371	742.644392749209	639.670712659294	1146.680456723188	709.327732826164	576.518059410334	1182.364444665435	619.327014974992	626.707917283044	1150.529157756478	503.109660531876	599.682542596791	1075.592670148992	437.188024279642	680.224027110198	1140.073298729480	363.590152950386	609.823442472315	1034.089678758843	132.582689226758	590.751406345661	1109.943501043085	103.280354772089	667.205521470908	1212.385526128009	175.933735185468	657.365094638827	1317.736998830266	138.265850954895	661.254954508580	
5	12.919714285714	1029.847319631805	1026.074351953856	526.706848598473	1030.609206356865	965.292528188080	275.537701616095	1087.001363714805	1449.660740303839	389.275917390365	960.562892813532	1520.120409356483	533.613514788541	972.111606829357	1573.356091905934	348.499349284989	1065.257022827265	1510.774377140943	186.409922446803	1055.672688177968	1181.549810675127	64.666384605990	1211.697811183868	941.733229096075	100.094069254363	847.968897121078	1206.057754520328	665.844879120986	1073.693934105773	1024.699903508890	642.037672388792	1036.106897384573	741.018573305634	284.795803315401	954.153996589422	675.791868376246	250.451884428770	1021.484968338623	612.806411117802	311.823888925546	1007.873068498059	496.736038764290	322.165530055276	953.017915125108	399.434061619745	350.511899102613	876.802709321242	334.385862026345	277.652954392670	909.494462250992	280.456964439152	366.507595125978	756.119336061137	53.642688588512	378.682637199135	845.526403615125	27.944497721532	320.963257323344	942.783104413004	88.957957223215	364.583765152198	1048.490691714091	44.696886900194	374.349277373167	1103.359478393899	829.181792924694	567.074814827417	1054.445855762711	742.519720952185	639.123416836428	1150.584847290591	710.130986242992	574.235022018870	1187.914480986481	620.185488368914	623.721560167646	1155.165796953003	503.304265588973	597.208432483096	1081.917174531532	437.615506047031	679.339881074119	1144.423346196046	363.866841028349	607.279733767490	1036.811116167825	133.352099817581	590.315638703022	1114.396300384763	103.693263914049	664.936455147394	1216.836956858704	176.102726852225	652.778244349066	1322.182001267409	138.103123758448	654.144000763773	
